# xmcd CD database file
#
# Track frame offsets:
#	150
#	6234
#	37207
#	58694
#	94738
#	123156
#	156325
#	187927
#	202710
#	219685
#	237308
#
# Disc length: 3476 seconds
#
# Revision: 0
# Processed by: cddbd v1.5.1PL2 Copyright (c) Steve Scherf et al.
# Submitted via: CDex 1.50beta10
#
DISCID=930d920b
DTITLE=Eric Clapton - Le Cannet [CD1)
DYEAR=2006
DGENRE=Blues
TTITLE0=Tuning
TTITLE1=Pretending
TTITLE2=So Tired
TTITLE3=Got to Get Better in A Little
TTITLE4=Lost and Found
TTITLE5=I Shot the Sheriff
TTITLE6=Anyday
TTITLE7=Back Home
TTITLE8=I Am Yours
TTITLE9=Nobody Knows You ...
TTITLE10=Milkcow Blues
EXTD=YEAR: 2006
EXTT0=
EXTT1=
EXTT2=
EXTT3=
EXTT4=
EXTT5=
EXTT6=
EXTT7=
EXTT8=
EXTT9=
EXTT10=
PLAYORDER=
